{
  "asset": {
    "version": "2.0",
    "generator": "THREE.GLTFExporter"
  },
  "scenes": [
    {
      "name": "Scene",
      "nodes": [
        9
      ]
    }
  ],
  "scene": 0,
  "nodes": [
    {
      "rotation": [
        0.000022773270757170394,
        0.7071068286895752,
        -0.000022773270757170394,
        0.7071068286895752
      ],
      "translation": [
        5.894723415374756,
        0.0014836788177490234,
        0
      ],
      "scale": [
        17.152711868286133,
        17.1527099609375,
        17.1527099609375
      ],
      "name": "Area004",
      "extras": {
        "name": "Area.004"
      },
      "extensions": {
        "KHR_lights_punctual": {
          "light": 0
        }
      }
    },
    {
      "rotation": [
        -0.7071067690849304,
        0,
        0,
        0.7071068286895752
      ],
      "translation": [
        0,
        0.31520554423332214,
        0
      ],
      "scale": [
        0.39728108048439026,
        0.39728105068206787,
        0.39728105068206787
      ],
      "name": "Area",
      "extras": {
        "name": "Area"
      },
      "extensions": {
        "KHR_lights_punctual": {
          "light": 1
        }
      }
    },
    {
      "rotation": [
        0.7070879340171814,
        0,
        0,
        0.7071256637573242
      ],
      "translation": [
        0,
        -0.3637664318084717,
        0
      ],
      "scale": [
        0.7677136659622192,
        0.7677136063575745,
        0.7677136063575745
      ],
      "name": "Area001",
      "extras": {
        "name": "Area.001"
      },
      "extensions": {
        "KHR_lights_punctual": {
          "light": 2
        }
      }
    },
    {
      "rotation": [
        0.000022786854970036075,
        0.7071068286895752,
        -0.000022786854970036075,
        0.7071068286895752
      ],
      "translation": [
        0.5813760161399841,
        0.00020549383771140128,
        0
      ],
      "scale": [
        0.6167874932289124,
        0.6167874336242676,
        0.6167874336242676
      ],
      "name": "Area002",
      "extras": {
        "name": "Area.002"
      },
      "extensions": {
        "KHR_lights_punctual": {
          "light": 3
        }
      }
    },
    {
      "rotation": [
        0.00002278684223711025,
        -0.7075350880622864,
        0.000022786876797908917,
        0.7066782712936401
      ],
      "translation": [
        -0.5994582772254944,
        0.00020549383771140128,
        0
      ],
      "scale": [
        0.6677142381668091,
        0.66771399974823,
        0.6677141785621643
      ],
      "name": "Area003",
      "extras": {
        "name": "Area.003"
      },
      "extensions": {
        "KHR_lights_punctual": {
          "light": 4
        }
      }
    },
    {
      "rotation": [
        0.00003216587356291711,
        -0.00035952459438703954,
        0,
        1
      ],
      "translation": [
        0.005646375007927418,
        0.00020549383771140128,
        0.6006655693054199
      ],
      "scale": [
        0.6677142977714539,
        0.66771399974823,
        0.6677141785621643
      ],
      "name": "Area005",
      "extras": {
        "name": "Area.005"
      },
      "extensions": {
        "KHR_lights_punctual": {
          "light": 5
        }
      }
    },
    {
      "rotation": [
        0,
        1,
        -0.000032225478207692504,
        0.00011094013461843133
      ],
      "translation": [
        0.005646375007927418,
        0.00020549383771140128,
        -0.6095660328865051
      ],
      "scale": [
        0.6677142381668091,
        0.66771399974823,
        0.6677142381668091
      ],
      "name": "Area006",
      "extras": {
        "name": "Area.006"
      },
      "extensions": {
        "KHR_lights_punctual": {
          "light": 6
        }
      }
    },
    {
      "scale": [
        7.220065116882324,
        7.220065116882324,
        7.220065116882324
      ],
      "name": "axis",
      "extras": {
        "name": "axis"
      },
      "children": [
        1,
        2,
        3,
        4,
        5,
        6
      ]
    },
    {
      "name": "torusglb",
      "extras": {
        "name": "torus.glb",
        "uuid": "e0e557ff-21bc-4619-9397-05ff097d4300",
        "assets reported": {}
      },
      "children": [
        0,
        7
      ]
    },
    {
      "name": "scene (2).gltf",
      "children": [
        8
      ]
    }
  ],
   "extensions": {
    "KHR_lights_punctual": {
      "lights": [
        {
          "name": "Area004",
          "color": [
            1,
            1,
            1
          ],
          "intensity":0,
          "type": "point"
        },
        {
          "name": "Area",
          "color": [
            1,
            1,
            1
          ],
          "intensity": 5,
          "type": "point"
        },
        {
          "name": "Area001",
          "color": [
            1,
            1,
            1
          ],
          "intensity": 1,
          "type": "point"
        },
        {
          "name": "Area002",
          "color": [
            1,
            1,
            1
          ],
          "intensity": 10,
          "type": "point"
        },
        {
          "name": "Area003",
          "color": [
            1,
            1,
            1
          ],
          "intensity": 10,
          "type": "point"
        },
        {
          "name": "Area005",
          "color": [
            1,
            1,
            1
          ],
          "intensity": 10,
          "type": "point"
        },
        {
          "name": "Area006",
          "color": [
            1,
            1,
            1
          ],
          "intensity": 10,
          "type": "point"
        }
      ]
    }
  },
  "animations": [
    {
      "name": "axisAction",
      "samplers": [
        {
          "input": 0,
          "output": 1,
          "interpolation": "LINEAR"
        }
      ],
      "channels": [
        {
          "sampler": 0,
          "target": {
            "node": 7,
            "path": "rotation"
          }
        }
      ]
    }
  ],
  "bufferViews": [
    {
      "buffer": 0,
      "byteOffset": 0,
      "byteLength": 484
    },
    {
      "buffer": 0,
      "byteOffset": 484,
      "byteLength": 1936
    }
  ],
  "buffers": [
    {
      "byteLength": 2420,
      "uri": "data:application/octet-stream;base64,"
    }
  ],
  "accessors": [
    {
      "bufferView": 0,
      "componentType": 5126,
      "count": 121,
      "max": [
        5
      ],
      "min": [
        0
      ],
      "type": "SCALAR"
    },
    {
      "bufferView": 1,
      "componentType": 5126,
      "count": 121,
      "max": [
        0,
        0.9996573328971863,
        0,
        1
      ],
      "min": [
        0,
        -1,
        0,
        4.371138828673793e-8
      ],
      "type": "VEC4"
    }
  ],
  "extensionsUsed": [
    "KHR_lights_punctual"
  ]
}